<?xml version="1.0" encoding="utf-8"?>
<!-- Generator: Adobe Illustrator 28.3.0, SVG Export Plug-In . SVG Version: 6.00 Build 0)  -->
<svg version="1.1" xmlns="http://www.w3.org/2000/svg" xmlns:xlink="http://www.w3.org/1999/xlink" x="0px" y="0px"
	 viewBox="0 0 81 80.3" style="enable-background:new 0 0 81 80.3;" xml:space="preserve">
<style type="text/css">
	.st0{fill:none;stroke:#FFFFFF;stroke-miterlimit:10;}
	.st1{fill:#FFFFFF;}
	.st2{fill:none;}
	.st3{fill:none;stroke:#F3FFF5;stroke-width:4;stroke-miterlimit:10;}
	.st4{fill:none;stroke:#72DFFF;stroke-miterlimit:10;}
	.st5{fill:none;stroke:#B1C0C9;stroke-miterlimit:10;}
	.st6{fill:none;stroke:#F3FFF5;stroke-width:2;stroke-miterlimit:10;}
	.st7{fill:none;stroke:#000000;stroke-width:5;stroke-miterlimit:10;}
	.st8{fill:url(#SVGID_1_);}
	.st9{fill:#67686B;}
</style>
<g id="Layer_1">
	<g id="Component_2_1" transform="translate(12 57.307)">
		<path id="Path_8" class="st0" d="M16.5-48.6c3.4-0.3,24.4,5.8,32.4-1.1c2-1.7,1.7-3,4.3-4.7c2.6-1.8,8.7-4.5,12.6-0.5
			c3,3.1,3.5,9,0.6,13.8H19.2c0,0.2,0,0.7,0,1.3c0,4.5,0.2,14.6-1.3,17.1c0,0.1-0.3,0.5-0.6,1c-0.4,0.8-1,1.5-1.2,2.1
			c-0.3,1-0.6,2.5-0.8,4.4c-0.1,0.8,0,1.7,0.4,2.4c0.2,0.4,0.3,0.8,0.4,1.3c0.1,0.2,0.1,0.3,0.2,0.5c0,0,0.9,2,2.2,3.6
			c0.4,0.5,1.8,1.9,6.6,2.7c6,1,8.1-0.5,9.4,1C35.9-2,35,1.9,33,4.5c-3.9,5.2-10.9,2.6-14.1,7c-1.3,1.7-2.3,4.9-0.1,11.4
			c-0.7,0-1.9,0.1-3.4,0.1c-2.8,0-4.2,0.1-4.6,0C7.5,22.5,4.9,9.7,5.1-14.2c0,0,0.2-16.3,7-31.2c0.5-1.1,1.3-1.8,1.3-1.8
			C14.3-48,15.4-48.5,16.5-48.6z"/>
		<path id="Path_9_00000065044557635014846150000014933940681873310890_" class="st1" d="M-11.2-54.6v77.4H0v-77.3L-11.2-54.6z"/>
		<path class="st2" d="M70.7-45.8"/>
		<g id="Layer_3" transform="translate(38.182 20.224)">
			<path id="Path_11" class="st3" d="M-11.6-46.2C-11.6-46.1-11.6-46.1-11.6-46.2c0.6,0.4,1.9-4.6,4.7-6.7c5-3.9,11.9-1.2,13.9,0.6
				c1,0.7,1.8,1.8,2.1,3.1c0,0.2,0,0.3,0.1,1.8c0.1,0.9,0.2,1.7,0.2,1.8c0.2,2.5,10.5,6.4,10.8,10.4c0.2,2.3-2.7,4.5-4.3,5.4
				c-5.1,2.8-9.5-1.9-13.8,1.3c-1.6,1.2-1.7,2.7-3.7,3.4c-1.7,0.5-6-0.7-7.5-1.6"/>
		</g>
		<g id="Layer_5" transform="translate(45.502 26.907)">
			<path id="Path_12" class="st4" d="M9.9-45.8c-0.9,0.3-1.4,1.1-2.2,2.4c-0.4,0.6-0.7,1.2-0.7,2s0.3,1.6,0.9,2.1
				c1.4,1.3,3.8,0,4.1-0.2c1.1-0.5,1.9-1.4,2.2-2.6c0-1.1-0.4-2.1-1.2-2.8C12.1-45.6,11-46,9.9-45.8z"/>
			<path id="Path_13" class="st5" d="M-11.6-53.7c1.6-1.2,2.1-1.2,2.4-1c0.6,0.5-0.7,2.6,0,3.4c0.4,0.5,1.5,0.3,2.1-0.2
				c0.9-0.7,1.3-1.9,0.9-2.9C-7-55.3-9.1-55-11.6-53.7z"/>
		</g>
		<g id="Layer_4" transform="translate(26.607 27.98)">
			<path id="Path_14" class="st6" d="M0.4-55.5c0.9,1.2,0.4,2.5,0.4,4.1c-0.1,5.5,4.6,7,4.5,11.4c-0.2,3.2-2.1,6-5,7.1
				c-5.1,1.7-12.1-5.8-11.7-11.7c0.1-2,1.6-4.2,3.5-7.3c0.9-1.4,1.7-2.6,2.3-3.4c0.2-0.3,0.9-1.2,2.1-1.5C-2-57.2-0.3-56.5,0.4-55.5
				z"/>
		</g>
		<path class="st2" d="M40.1,4.2"/>
		<path class="st2" d="M31.4-57.3"/>
		<path class="st2" d="M37-67.3"/>
	</g>
	<path class="st7" d="M25.5,38.5"/>
	<path class="st7" d="M31-6.2"/>
	<linearGradient id="SVGID_1_" gradientUnits="userSpaceOnUse" x1="92.9834" y1="59.4835" x2="92.9834" y2="59.4835">
		<stop  offset="0" style="stop-color:#000000"/>
		<stop  offset="4.069495e-02" style="stop-color:#242424;stop-opacity:0.9593"/>
		<stop  offset="9.942376e-02" style="stop-color:#525252;stop-opacity:0.9006"/>
		<stop  offset="0.1638" style="stop-color:#7B7B7B;stop-opacity:0.8362"/>
		<stop  offset="0.2325" style="stop-color:#9F9F9F;stop-opacity:0.7675"/>
		<stop  offset="0.3066" style="stop-color:#BDBDBD;stop-opacity:0.6934"/>
		<stop  offset="0.3877" style="stop-color:#D5D5D5;stop-opacity:0.6123"/>
		<stop  offset="0.479" style="stop-color:#E8E8E8;stop-opacity:0.521"/>
		<stop  offset="0.586" style="stop-color:#F5F5F5;stop-opacity:0.414"/>
		<stop  offset="0.7237" style="stop-color:#FDFDFD;stop-opacity:0.2763"/>
		<stop  offset="1" style="stop-color:#FFFFFF;stop-opacity:0"/>
	</linearGradient>
	<path class="st8" d="M93,59.5"/>
	<path class="st9" d="M36.8,84.3"/>
</g>
<g id="Layer_2">
	<path class="st1" d="M20.5,39.8"/>
</g>
</svg>
