<?xml version="1.0" encoding="utf-8"?>
<!-- Generator: Adobe Illustrator 28.3.0, SVG Export Plug-In . SVG Version: 6.00 Build 0)  -->
<svg version="1.1" id="Layer_1" xmlns="http://www.w3.org/2000/svg" xmlns:xlink="http://www.w3.org/1999/xlink" x="0px" y="0px"
	 viewBox="0 0 676.7 678" style="enable-background:new 0 0 676.7 678;" xml:space="preserve">
<style type="text/css">
	.st0{fill:#C13584;}
	.st1{fill:#FFFFFF;}
</style>
<circle class="st0" cx="339" cy="340" r="333.3"/>
<path class="st1" d="M339,176c53.4,0,59.7,0.2,80.8,1.2c19.5,0.9,30.1,4.1,37.1,6.9c9.3,3.6,16,8,23,15c7,7,11.3,13.7,15,23
	c2.7,7,6,17.6,6.9,37.1c1,21.1,1.2,27.4,1.2,80.8c0,53.4-0.2,59.7-1.2,80.8c-0.9,19.5-4.1,30.1-6.9,37.1c-3.6,9.3-8,16-15,23
	c-7,7-13.7,11.3-23,15c-7,2.7-17.6,6-37.1,6.9c-21.1,1-27.4,1.2-80.8,1.2s-59.7-0.2-80.8-1.2c-19.5-0.9-30.1-4.1-37.1-6.9
	c-9.3-3.6-16-8-23-15c-7-7-11.3-13.7-15-23c-2.7-7-6-17.6-6.9-37.1c-1-21.1-1.2-27.4-1.2-80.8c0-53.4,0.2-59.7,1.2-80.8
	c0.9-19.5,4.1-30.1,6.9-37.1c3.6-9.3,8-16,15-23c7-7,13.7-11.3,23-15c7-2.7,17.6-6,37.1-6.9C279.3,176.2,285.6,176,339,176z
	 M339,140c-54.3,0-61.1,0.2-82.5,1.2c-21.3,1-35.8,4.4-48.5,9.3c-13.2,5.1-24.3,11.9-35.4,23.1c-11.1,11.1-18,22.3-23.1,35.4
	c-4.9,12.7-8.3,27.3-9.3,48.5c-1,21.3-1.2,28.1-1.2,82.5c0,54.3,0.2,61.1,1.2,82.5c1,21.3,4.4,35.8,9.3,48.5
	c5.1,13.2,11.9,24.3,23.1,35.4c11.1,11.1,22.3,18,35.4,23.1c12.7,4.9,27.3,8.3,48.5,9.3c21.3,1,28.1,1.2,82.5,1.2s61.1-0.2,82.5-1.2
	c21.3-1,35.8-4.4,48.5-9.3c13.2-5.1,24.3-11.9,35.4-23.1c11.1-11.1,18-22.3,23.1-35.4c4.9-12.7,8.3-27.3,9.3-48.5
	c1-21.3,1.2-28.1,1.2-82.5c0-54.3-0.2-61.1-1.2-82.5c-1-21.3-4.4-35.8-9.3-48.5c-5.1-13.2-11.9-24.3-23.1-35.4
	c-11.1-11.1-22.3-18-35.4-23.1c-12.7-4.9-27.3-8.3-48.5-9.3C400.1,140.2,393.3,140,339,140z"/>
<path class="st1" d="M339.1,237.4c-56.7,0-102.7,46-102.7,102.7c0,56.7,46,102.7,102.7,102.7c56.7,0,102.7-46,102.7-102.7
	C441.8,283.4,395.8,237.4,339.1,237.4z M339.1,406.8c-36.8,0-66.7-29.8-66.7-66.7c0-36.8,29.8-66.7,66.7-66.7
	c36.8,0,66.7,29.8,66.7,66.7C405.8,376.9,375.9,406.8,339.1,406.8z"/>
<path class="st1" d="M469.8,233.3c0,13.3-10.7,24-24,24c-13.3,0-24-10.7-24-24c0-13.3,10.7-24,24-24
	C459.1,209.3,469.8,220,469.8,233.3z"/>
</svg>
